{
    "asset" : {
        "generator" : "Khronos glTF Blender I/O v1.8.19",
        "version" : "2.0"
    },
    "scene" : 0,
    "scenes" : [
        {
            "name" : "Scene",
            "nodes" : [
                0
            ]
        }
    ],
    "nodes" : [
        {
            "mesh" : 0,
            "name" : "rabbit_insta"
        }
    ],
    "materials" : [
        {
            "doubleSided" : true,
            "name" : "Insta",
            "pbrMetallicRoughness" : {
                "baseColorTexture" : {
                    "index" : 0
                },
                "metallicFactor" : 0,
                "metallicRoughnessTexture" : {
                    "index" : 1
                }
            }
        },
        {
            "doubleSided" : true,
            "name" : "indigo",
            "pbrMetallicRoughness" : {
                "baseColorFactor" : [
                    0,
                    0.0022085311356931925,
                    0.09147564321756363,
                    1
                ],
                "metallicFactor" : 0,
                "metallicRoughnessTexture" : {
                    "index" : 2
                }
            }
        }
    ],
    "meshes" : [
        {
            "name" : "Cube.006",
            "primitives" : [
                {
                    "attributes" : {
                        "POSITION" : 0,
                        "NORMAL" : 1,
                        "TEXCOORD_0" : 2
                    },
                    "indices" : 3,
                    "material" : 0
                },
                {
                    "attributes" : {
                        "POSITION" : 4,
                        "NORMAL" : 5,
                        "TEXCOORD_0" : 6
                    },
                    "indices" : 7,
                    "material" : 1
                }
            ]
        }
    ],
    "textures" : [
        {
            "sampler" : 0,
            "source" : 0
        },
        {
            "sampler" : 0,
            "source" : 1
        },
        {
            "sampler" : 0,
            "source" : 1
        }
    ],
    "images" : [
        {
            "bufferView" : 4,
            "mimeType" : "image/jpeg",
            "name" : "icon"
        },
        {
            "bufferView" : 5,
            "mimeType" : "image/png",
            "name" : "rabbit_rough"
        }
    ],
    "accessors" : [
        {
            "bufferView" : 0,
            "componentType" : 5126,
            "count" : 3818,
            "max" : [
                0.9029083251953125,
                3.114415407180786,
                1.656828761100769
            ],
            "min" : [
                -0.9029083251953125,
                1.1536087640706683e-06,
                -1.8139492273330688
            ],
            "type" : "VEC3"
        },
        {
            "bufferView" : 1,
            "componentType" : 5126,
            "count" : 3818,
            "type" : "VEC3"
        },
        {
            "bufferView" : 2,
            "componentType" : 5126,
            "count" : 3818,
            "type" : "VEC2"
        },
        {
            "bufferView" : 3,
            "componentType" : 5123,
            "count" : 22896,
            "type" : "SCALAR"
        },
        {
            "bufferView" : 6,
            "componentType" : 5126,
            "count" : 230,
            "max" : [
                0.6580156087875366,
                0.804835319519043,
                -1.0218912363052368
            ],
            "min" : [
                -0.6580156087875366,
                0.20846660435199738,
                -1.7977018356323242
            ],
            "type" : "VEC3"
        },
        {
            "bufferView" : 7,
            "componentType" : 5126,
            "count" : 230,
            "type" : "VEC3"
        },
        {
            "bufferView" : 8,
            "componentType" : 5126,
            "count" : 230,
            "type" : "VEC2"
        },
        {
            "bufferView" : 9,
            "componentType" : 5123,
            "count" : 1347,
            "type" : "SCALAR"
        }
    ],
    "bufferViews" : [
        {
            "buffer" : 0,
            "byteLength" : 45816,
            "byteOffset" : 0
        },
        {
            "buffer" : 0,
            "byteLength" : 45816,
            "byteOffset" : 45816
        },
        {
            "buffer" : 0,
            "byteLength" : 30544,
            "byteOffset" : 91632
        },
        {
            "buffer" : 0,
            "byteLength" : 45792,
            "byteOffset" : 122176
        },
        {
            "buffer" : 0,
            "byteLength" : 18802,
            "byteOffset" : 167968
        },
        {
            "buffer" : 0,
            "byteLength" : 191091,
            "byteOffset" : 186772
        },
        {
            "buffer" : 0,
            "byteLength" : 2760,
            "byteOffset" : 377864
        },
        {
            "buffer" : 0,
            "byteLength" : 2760,
            "byteOffset" : 380624
        },
        {
            "buffer" : 0,
            "byteLength" : 1840,
            "byteOffset" : 383384
        },
        {
            "buffer" : 0,
            "byteLength" : 2694,
            "byteOffset" : 385224
        }
    ],
    "samplers" : [
        {
            "magFilter" : 9729,
            "minFilter" : 9987
        }
    ],
    "buffers" : [
        {
            "byteLength" : 387920,
            "uri" : "data:application/octet-stream;base64,"
        }
    ]
}
