{
    "asset" : {
        "generator" : "Khronos glTF Blender I/O v1.8.19",
        "version" : "2.0"
    },
    "scene" : 0,
    "scenes" : [
        {
            "name" : "Scene",
            "nodes" : [
                0
            ]
        }
    ],
    "nodes" : [
        {
            "mesh" : 0,
            "name" : "rabbit_bk"
        }
    ],
    "materials" : [
        {
            "doubleSided" : true,
            "name" : "indigo",
            "pbrMetallicRoughness" : {
                "baseColorFactor" : [
                    0,
                    0.0022085311356931925,
                    0.09147564321756363,
                    1
                ],
                "metallicFactor" : 0,
                "metallicRoughnessTexture" : {
                    "index" : 0
                }
            }
        },
        {
            "doubleSided" : true,
            "name" : "bk",
            "pbrMetallicRoughness" : {
                "baseColorFactor" : [
                    0.008695433847606182,
                    0.008695433847606182,
                    0.008695433847606182,
                    1
                ],
                "metallicFactor" : 0,
                "metallicRoughnessTexture" : {
                    "index" : 1
                }
            }
        }
    ],
    "meshes" : [
        {
            "name" : "Cube.005",
            "primitives" : [
                {
                    "attributes" : {
                        "POSITION" : 0,
                        "NORMAL" : 1,
                        "TEXCOORD_0" : 2
                    },
                    "indices" : 3,
                    "material" : 0
                },
                {
                    "attributes" : {
                        "POSITION" : 4,
                        "NORMAL" : 5,
                        "TEXCOORD_0" : 6
                    },
                    "indices" : 7,
                    "material" : 1
                }
            ]
        }
    ],
    "textures" : [
        {
            "sampler" : 0,
            "source" : 0
        },
        {
            "sampler" : 0,
            "source" : 0
        }
    ],
    "images" : [
        {
            "bufferView" : 4,
            "mimeType" : "image/png",
            "name" : "rabbit_rough"
        }
    ],
    "accessors" : [
        {
            "bufferView" : 0,
            "componentType" : 5126,
            "count" : 381,
            "max" : [
                0.6577374339103699,
                0.8050403594970703,
                -1.0218912363052368
            ],
            "min" : [
                -0.6580156087875366,
                0.20846660435199738,
                -1.7977018356323242
            ],
            "type" : "VEC3"
        },
        {
            "bufferView" : 1,
            "componentType" : 5126,
            "count" : 381,
            "type" : "VEC3"
        },
        {
            "bufferView" : 2,
            "componentType" : 5126,
            "count" : 381,
            "type" : "VEC2"
        },
        {
            "bufferView" : 3,
            "componentType" : 5123,
            "count" : 1347,
            "type" : "SCALAR"
        },
        {
            "bufferView" : 5,
            "componentType" : 5126,
            "count" : 4595,
            "max" : [
                0.9029083251953125,
                3.114415407180786,
                1.656828761100769
            ],
            "min" : [
                -0.9029083251953125,
                1.1536087640706683e-06,
                -1.8139492273330688
            ],
            "type" : "VEC3"
        },
        {
            "bufferView" : 6,
            "componentType" : 5126,
            "count" : 4595,
            "type" : "VEC3"
        },
        {
            "bufferView" : 7,
            "componentType" : 5126,
            "count" : 4595,
            "type" : "VEC2"
        },
        {
            "bufferView" : 8,
            "componentType" : 5123,
            "count" : 22896,
            "type" : "SCALAR"
        }
    ],
    "bufferViews" : [
        {
            "buffer" : 0,
            "byteLength" : 4572,
            "byteOffset" : 0
        },
        {
            "buffer" : 0,
            "byteLength" : 4572,
            "byteOffset" : 4572
        },
        {
            "buffer" : 0,
            "byteLength" : 3048,
            "byteOffset" : 9144
        },
        {
            "buffer" : 0,
            "byteLength" : 2694,
            "byteOffset" : 12192
        },
        {
            "buffer" : 0,
            "byteLength" : 191091,
            "byteOffset" : 14888
        },
        {
            "buffer" : 0,
            "byteLength" : 55140,
            "byteOffset" : 205980
        },
        {
            "buffer" : 0,
            "byteLength" : 55140,
            "byteOffset" : 261120
        },
        {
            "buffer" : 0,
            "byteLength" : 36760,
            "byteOffset" : 316260
        },
        {
            "buffer" : 0,
            "byteLength" : 45792,
            "byteOffset" : 353020
        }
    ],
    "samplers" : [
        {
            "magFilter" : 9729,
            "minFilter" : 9987
        }
    ],
    "buffers" : [
        {
            "byteLength" : 398812,
            "uri" : "data:application/octet-stream;base64,"
        }
    ]
}
