<svg id="Layer_1" data-name="Layer 1" xmlns="http://www.w3.org/2000/svg" viewBox="0 0 400 400"><defs><style>.cls-1{fill:#ddd;}.cls-2{fill:#8c1b22;}.cls-3{fill:#fdfdfd;}</style></defs><g id="eQvipU"><path class="cls-1" d="M228.87,374.09a99.77,99.77,0,0,0,27-8.85c1.78-.88,1.53-2.49,1.53-4,0-3.8.41-7.67-.1-11.41-.7-5.09,1.7-7,6.05-8.84,41.38-17.31,73.1-45.2,93.27-85.7,8.56-17.18,10.12-35.4,8.71-54.07C362.77,167,352.43,135.6,331.61,108c-14.95-19.8-33.7-35.1-55.64-46.49-3.65-1.89-5.07-3.47-3.2-7.69,2.09-4.7,2.83-10,4.89-14.72,1.77-4.08.21-5.26-3.31-6.4-16.57-5.35-33.63-7.7-50.92-8.87a355.31,355.31,0,0,0-58.08.87c-14.12,1.36-28,3.82-41.53,8.43-2.61.9-3.38,2-2.39,4.7,1.86,5,3.13,10.25,5.16,15.19,1.77,4.3,1,6.49-3.37,8.75a160.24,160.24,0,0,0-60.08,52.92A139.43,139.43,0,0,0,49.9,138.5c3,.23,3.87-1.69,5.08-2.82C81.74,110.79,113.47,98,149.9,97.81c27.25-.16,52.47,7.55,75.32,22.61,5.43,3.58,7.13,10.17,4.05,15.37-3.22,5.44-9.85,7.06-15.83,3.36-14.71-9.11-30.33-15.57-47.59-17.94a115.35,115.35,0,0,0-122.91,71c-7.14,17.58-17.35,34-26.67,42.57-1.54-3.47-1.45-7.11-1.57-10.53C13,173.56,25.81,127.48,59,88.13a175.12,175.12,0,0,1,42.42-36.25c2.66-1.64,3.57-3,2.37-6.06-2-5.3-3.48-10.84-5.43-16.18-1-2.85-.74-4.47,2-6.34,13-8.72,27.71-12.25,42.67-15,29.65-5.47,59.59-5.44,89.49-3.18,19.49,1.47,38.78,4.72,56.86,12.76,13.29,5.92,13.22,6,9,19.8-1.19,3.91-4.42,8.25-3,11.62,1.29,3.07,6.12,4.62,9.36,6.88,43.11,30,68.54,71.24,77.24,122.81,3.55,21.06,5.34,42.29,0,63.38-6.56,25.85-21,47.16-39,66.27a210,210,0,0,1-62.77,46.1c-2.66,1.27-3.61,2.76-3.38,5.52.17,2.06-.3,4.21.09,6.21,1.37,7-2.29,10.65-8,13.72C245.33,393,219.85,397,193.36,396.24c-3.59-.09-7.16-.43-11.58-.71,7.66-8.41,14.65-16.42,21.23-24.78,24.35-30.92,43.83-64.64,56.66-101.87,8.78-25.49,6.85-51-2.87-76.06a118.82,118.82,0,0,0-18-30.7c-4.48-5.66-3.75-11.91,1.46-16.07,4.86-3.87,11.63-3,16,2.41a136,136,0,0,1,29.16,64.91c5.14,31.35-1.32,60.61-14.94,88.95-11.25,23.42-23.57,46.12-38.72,67.25C230.92,370.81,230.15,372.12,228.87,374.09ZM50,140.09l.81-.93c-.23-.15-.54-.49-.68-.43a5.44,5.44,0,0,0-1.05.77Z"/><path class="cls-2" d="M143.92,385.21a331.36,331.36,0,0,0,30.83-33C198,323.31,217.14,292,228.48,256.51c13.75-42.95-16.56-91.3-60.91-98.82a81.07,81.07,0,0,0-29.87,0c-3.37.67-6.9,1.23-10.13-.69-4-2.41-6.24-6-5.89-10.76a11.14,11.14,0,0,1,9.16-10c26.76-5.51,52-1.47,75.18,13.05,43.7,27.37,59.25,80,38.72,128.62a362.23,362.23,0,0,1-72.5,110.9c-3,3.18-5.79,4.22-10,2.83C156.41,389.68,150.36,388.26,143.92,385.21Z"/><path class="cls-2" d="M150,169.9c18.46.37,32.66,5.4,44.86,15.75,5.65,4.79,6.53,11.4,2.36,16.46s-10.84,5.31-16.63.74c-24.78-19.59-57-10.84-68.81,18.48-12,30-30.29,55.7-54.18,77.49-3.37,3.07-5.26,3.17-7.77-.7a124.07,124.07,0,0,0-8.17-10.71c-1.68-2.08-1.29-3.43.66-5.16,22.59-19.93,38.43-44.41,50.12-72.1C103.46,184,124.48,171.42,150,169.9Z"/><path class="cls-2" d="M150.66,206.25c22.18,0,36.25,19.85,29.22,39-2.79,7.6-6.24,15-9.72,22.28-3.1,6.54-9.71,8.84-15.54,5.86-5.66-2.89-7.41-9-4.48-15.55,2.6-5.82,5.24-11.64,7.73-17.51s1.29-9.79-3-11.36-7.42.5-9.68,6a246.56,246.56,0,0,1-62.15,89.48c-2.61,2.41-4.35,3.21-7.11.27a114,114,0,0,0-10.33-9.43c-2.48-2.07-2.41-3.28.11-5.5a218.33,218.33,0,0,0,54.78-74c1.79-3.92,3.24-8,5.08-11.9C131,212.57,139.9,206.54,150.66,206.25Z"/><path class="cls-2" d="M195.58,234.81c-.31-2.34-.69-5.43-1.14-8.5-.93-6.35,2.85-12.15,8.75-13.33,6.05-1.21,11.42,2.43,13.05,8.9a58.14,58.14,0,0,1-3.17,37.58c-12.26,28.89-27.33,56.19-47,80.85-8.29,10.42-17.78,19.76-26.35,29.93-1.84,2.19-4.41,3.8-6.76,5.51-1.09.8-1.74,3.06-3.73,1.7-1.79-1.23-4-2.12-3.84-5,.17-4.15,1.25-8.82-.23-12.36-2.89-6.86,1.92-9.52,5.37-13.12A292.1,292.1,0,0,0,193,248.21a34.93,34.93,0,0,0,1.87-5.91A74,74,0,0,0,195.58,234.81Z"/><path class="cls-2" d="M111.46,161.22a11.22,11.22,0,0,1-5.16,10c-13.45,9-22,21.58-27.9,36.37-9.48,23.77-23.84,44.25-42.25,62-3,2.88-4.5,2.78-6-1.11-2.1-5.28-6-10.33-6.35-15.68-.4-5.55,6.15-8.47,9.53-12.61a162.57,162.57,0,0,0,25.15-42.62C65.73,179.3,77,164.14,93.38,153c3.87-2.62,7.84-3.47,12.12-1.09A10.9,10.9,0,0,1,111.46,161.22Z"/><path class="cls-2" d="M90.83,336a274.55,274.55,0,0,0,43.43-50.27A11.06,11.06,0,0,1,152.67,298a266.8,266.8,0,0,1-40.39,48.48c-1.38,1.31-2.52,2.1-4.47.88C102.13,343.75,96.28,340.45,90.83,336Z"/><path class="cls-3" d="M50,140.09l-.92-.59a5.44,5.44,0,0,1,1.05-.77c.14-.06.45.28.68.43Z"/></g></svg>